<svg xmlns="http://www.w3.org/2000/svg" width="36.138" height="24.102" viewBox="0 0 36.138 24.102">
  <path id="Icon_ionic-ios-arrow-round-back" data-name="Icon ionic-ios-arrow-round-back" d="M20.974,11.713a1.64,1.64,0,0,1,.013,2.31l-7.619,7.644H42.4a1.632,1.632,0,0,1,0,3.264H13.367L21,32.575a1.652,1.652,0,0,1-.013,2.31,1.625,1.625,0,0,1-2.3-.013L8.346,24.453h0a1.832,1.832,0,0,1-.339-.515,1.557,1.557,0,0,1-.126-.628,1.636,1.636,0,0,1,.464-1.142L18.689,11.751A1.6,1.6,0,0,1,20.974,11.713Z" transform="translate(-7.882 -11.252)" fill="#2e303c"/>
</svg>
