<svg xmlns="http://www.w3.org/2000/svg" width="36.138" height="24.102" viewBox="0 0 36.138 24.102">
  <path id="Icon_ionic-ios-arrow-round-forward" data-name="Icon ionic-ios-arrow-round-forward" d="M30.921,11.713a1.64,1.64,0,0,0-.013,2.31l7.632,7.644H9.494a1.632,1.632,0,0,0,0,3.264H38.527L30.9,32.575a1.652,1.652,0,0,0,.013,2.31,1.625,1.625,0,0,0,2.3-.013L43.548,24.453h0a1.833,1.833,0,0,0,.339-.515,1.557,1.557,0,0,0,.126-.628,1.636,1.636,0,0,0-.464-1.142L33.205,11.751A1.6,1.6,0,0,0,30.921,11.713Z" transform="translate(-7.875 -11.252)" fill="#2e303c"/>
</svg>
